CalSansText-Regular.ufo
<glyph name="e" format="2">
  <advance width="564.5"/>
  <unicode hex="0065"/>
  <anchor x="292.0" y="0.0" name="bottom"/>
  <anchor x="322.0" y="9.5" name="ogonek"/>
  <anchor x="289.75" y="493.75" name="top"/>
  <outline>
    <contour>
      <point x="291.5" y="-13.0" type="curve" smooth="yes"/>
      <point x="381.0" y="-13.0"/>
      <point x="455.5" y="20.75"/>
      <point x="500.75" y="78.75" type="curve"/>
      <point x="435.75" y="138.0" type="line"/>
      <point x="403.0" y="93.0"/>
      <point x="356.5" y="72.5"/>
      <point x="293.0" y="72.5" type="curve" smooth="yes"/>
      <point x="200.75" y="72.5"/>
      <point x="134.0" y="140.25"/>
      <point x="131.0" y="234.5" type="curve"/>
      <point x="130.75" y="248.75" type="line"/>
      <point x="129.25" y="360.75"/>
      <point x="192.5" y="424.0"/>
      <point x="287.0" y="424.0" type="curve" smooth="yes"/>
      <point x="386.5" y="424.0"/>
      <point x="437.25" y="353.25"/>
      <point x="433.5" y="250.0" type="curve"/>
      <point x="464.5" y="292.0" type="line"/>
      <point x="86.5" y="292.0" type="line"/>
      <point x="86.5" y="214.5" type="line"/>
      <point x="525.0" y="214.5" type="line"/>
      <point x="527.25" y="223.5"/>
      <point x="527.5" y="238.25"/>
      <point x="527.5" y="250.0" type="curve" smooth="yes"/>
      <point x="527.5" y="401.75"/>
      <point x="436.25" y="506.75"/>
      <point x="289.0" y="506.75" type="curve" smooth="yes"/>
      <point x="142.5" y="506.75"/>
      <point x="37.0" y="398.75"/>
      <point x="37.0" y="246.75" type="curve" smooth="yes"/>
      <point x="37.0" y="96.75"/>
      <point x="139.25" y="-13.0"/>
    </contour>
  </outline>
</glyph>
<glyph name="g" format="2">
  <advance width="632.25"/>
  <unicode hex="0067"/>
  <anchor x="292.0" y="-220.0" name="bottom"/>
  <anchor x="382.0" y="-220.0" name="ogonek"/>
  <anchor x="296.25" y="493.75" name="top"/>
  <outline>
    <contour>
      <point x="291.75" y="-233.0" type="curve" smooth="yes"/>
      <point x="445.5" y="-230.75"/>
      <point x="560.75" y="-138.0"/>
      <point x="560.75" y="26.75" type="curve" smooth="yes"/>
      <point x="560.75" y="493.75" type="line"/>
      <point x="471.0" y="493.75" type="line"/>
      <point x="471.0" y="405.75" type="line"/>
      <point x="465.0" y="405.75" type="line"/>
      <point x="435.5" y="464.5"/>
      <point x="374.75" y="506.75"/>
      <point x="289.25" y="506.75" type="curve" smooth="yes"/>
      <point x="144.75" y="506.75"/>
      <point x="37.0" y="393.0"/>
      <point x="37.0" y="247.5" type="curve" smooth="yes"/>
      <point x="37.0" y="102.25"/>
      <point x="144.75" y="-10.0"/>
      <point x="289.25" y="-10.0" type="curve" smooth="yes"/>
      <point x="371.5" y="-10.0"/>
      <point x="433.75" y="33.0"/>
      <point x="461.0" y="91.25" type="curve"/>
      <point x="467.0" y="91.25" type="line"/>
      <point x="467.0" y="27.25" type="line" smooth="yes"/>
      <point x="467.75" y="-77.0"/>
      <point x="392.5" y="-145.5"/>
      <point x="294.25" y="-145.5" type="curve" smooth="yes"/>
      <point x="218.0" y="-145.5"/>
      <point x="167.75" y="-121.5"/>
      <point x="120.75" y="-63.25" type="curve"/>
      <point x="47.75" y="-120.0" type="line"/>
      <point x="115.25" y="-210.25"/>
      <point x="200.75" y="-233.75"/>
    </contour>
    <contour>
      <point x="300.75" y="76.25" type="curve" smooth="yes"/>
      <point x="197.0" y="76.25"/>
      <point x="130.75" y="153.0"/>
      <point x="130.75" y="248.5" type="curve" smooth="yes"/>
      <point x="130.75" y="345.25"/>
      <point x="197.0" y="420.5"/>
      <point x="300.75" y="420.5" type="curve" smooth="yes"/>
      <point x="406.0" y="420.5"/>
      <point x="466.25" y="343.0"/>
      <point x="466.25" y="247.5" type="curve" smooth="yes"/>
      <point x="466.25" y="152.25"/>
      <point x="406.0" y="76.25"/>
    </contour>
  </outline>
</glyph>
<glyph name="p" format="2">
  <advance width="621.0"/>
  <unicode hex="0070"/>
  <anchor x="340.0" y="0.0" name="bottom"/>
  <anchor x="420.0" y="0.0" name="ogonek"/>
  <anchor x="335.5" y="493.75" name="top"/>
  <outline>
    <contour>
      <point x="337.75" y="-13.0" type="curve" smooth="yes"/>
      <point x="482.25" y="-13.0"/>
      <point x="584.0" y="97.0"/>
      <point x="584.0" y="246.0" type="curve" smooth="yes"/>
      <point x="584.0" y="395.25"/>
      <point x="482.25" y="506.0"/>
      <point x="337.75" y="506.0" type="curve" smooth="yes"/>
      <point x="256.0" y="506.0"/>
      <point x="193.0" y="463.75"/>
      <point x="167.25" y="406.5" type="curve"/>
      <point x="161.25" y="406.5" type="line"/>
      <point x="161.25" y="493.75" type="line"/>
      <point x="71.5" y="493.75" type="line"/>
      <point x="71.5" y="-220.0" type="line"/>
      <point x="165.25" y="-220.0" type="line"/>
      <point x="165.25" y="89.0" type="line"/>
      <point x="171.25" y="89.0" type="line"/>
      <point x="197.0" y="30.75"/>
      <point x="258.5" y="-13.0"/>
    </contour>
    <contour>
      <point x="326.25" y="73.25" type="curve" smooth="yes"/>
      <point x="228.5" y="73.25"/>
      <point x="163.75" y="149.25"/>
      <point x="163.75" y="246.0" type="curve" smooth="yes"/>
      <point x="163.75" y="346.0"/>
      <point x="228.5" y="419.75"/>
      <point x="326.25" y="419.75" type="curve" smooth="yes"/>
      <point x="428.5" y="419.75"/>
      <point x="490.25" y="347.5"/>
      <point x="490.25" y="247.0" type="curve" smooth="yes"/>
      <point x="490.25" y="147.75"/>
      <point x="428.5" y="73.25"/>
    </contour>
  </outline>
</glyph>
<glyph name="w" format="2">
  <advance width="807.75"/>
  <unicode hex="0077"/>
  <anchor x="405.25" y="0.0" name="bottom"/>
  <anchor x="405.25" y="493.75" name="top"/>
  <outline>
    <contour>
      <point x="177.5" y="0.0" type="line"/>
      <point x="288.25" y="0.0" type="line"/>
      <point x="378.75" y="298.0" type="line" smooth="yes"/>
      <point x="393.0" y="344.25"/>
      <point x="398.25" y="377.75"/>
      <point x="401.75" y="410.0" type="curve"/>
      <point x="408.25" y="410.0" type="line"/>
      <point x="411.75" y="378.5"/>
      <point x="417.25" y="343.5"/>
      <point x="431.75" y="298.0" type="curve" smooth="yes"/>
      <point x="524.25" y="0.0" type="line"/>
      <point x="630.5" y="0.0" type="line"/>
      <point x="791.25" y="493.75" type="line"/>
      <point x="689.25" y="493.75" type="line"/>
      <point x="604.25" y="196.0" type="line" smooth="yes"/>
      <point x="594.0" y="160.5"/>
      <point x="583.5" y="114.5"/>
      <point x="581.75" y="83.75" type="curve"/>
      <point x="575.25" y="83.75" type="line"/>
      <point x="572.75" y="114.5"/>
      <point x="562.5" y="160.0"/>
      <point x="551.25" y="197.0" type="curve" smooth="yes"/>
      <point x="460.5" y="493.75" type="line"/>
      <point x="350.5" y="493.75" type="line"/>
      <point x="260.5" y="197.0" type="line" smooth="yes"/>
      <point x="249.25" y="159.75"/>
      <point x="240.75" y="115.25"/>
      <point x="238.75" y="83.75" type="curve"/>
      <point x="232.25" y="83.75" type="line"/>
      <point x="228.75" y="116.0"/>
      <point x="218.5" y="159.0"/>
      <point x="207.75" y="196.0" type="curve" smooth="yes"/>
      <point x="124.25" y="493.75" type="line"/>
      <point x="16.5" y="493.75" type="line"/>
    </contour>
  </outline>
</glyph>
<glyph name="germandbls" format="2">
  <advance width="619.5"/>
  <unicode hex="00DF"/>
  <outline>
    <contour>
      <point x="344.0" y="-13.0" type="curve" smooth="yes"/>
      <point x="498.5" y="-13.0"/>
      <point x="572.0" y="92.5"/>
      <point x="572.0" y="206.75" type="curve" smooth="yes"/>
      <point x="572.0" y="310.25"/>
      <point x="500.0" y="399.0"/>
      <point x="385.0" y="405.25" type="curve"/>
      <point x="385.0" y="409.25" type="line"/>
      <point x="459.0" y="430.25"/>
      <point x="511.0" y="495.0"/>
      <point x="511.0" y="566.5" type="curve" smooth="yes"/>
      <point x="511.0" y="662.75"/>
      <point x="421.0" y="753.0"/>
      <point x="298.25" y="753.0" type="curve" smooth="yes"/>
      <point x="167.5" y="753.0"/>
      <point x="71.5" y="657.0"/>
      <point x="71.5" y="531.5" type="curve" smooth="yes"/>
      <point x="71.5" y="0.0" type="line"/>
      <point x="165.25" y="0.0" type="line"/>
      <point x="165.25" y="531.5" type="line" smooth="yes"/>
      <point x="165.25" y="615.0"/>
      <point x="219.5" y="665.25"/>
      <point x="294.25" y="665.25" type="curve" smooth="yes"/>
      <point x="366.5" y="665.25"/>
      <point x="416.0" y="620.5"/>
      <point x="416.0" y="551.5" type="curve" smooth="yes"/>
      <point x="416.0" y="474.75"/>
      <point x="352.25" y="434.25"/>
      <point x="259.25" y="426.0" type="curve"/>
      <point x="259.25" y="349.5" type="line"/>
      <point x="391.0" y="371.5"/>
      <point x="478.5" y="309.25"/>
      <point x="478.5" y="200.75" type="curve" smooth="yes"/>
      <point x="478.5" y="120.5"/>
      <point x="424.25" y="72.75"/>
      <point x="345.25" y="72.75" type="curve" smooth="yes"/>
      <point x="312.5" y="72.75"/>
      <point x="289.0" y="77.0"/>
      <point x="258.75" y="87.75" type="curve"/>
      <point x="258.75" y="3.25" type="line"/>
      <point x="280.75" y="-8.75"/>
      <point x="315.5" y="-13.0"/>
    </contour>
  </outline>
</glyph>
<glyph name="Hbar" format="2">
  <advance width="723.25"/>
  <unicode hex="0126"/>
  <anchor x="365.0" y="0.0" name="bottom"/>
  <anchor x="545.25" y="0.0" name="ogonek"/>
  <anchor x="365.0" y="700.0" name="top"/>
  <outline>
    <contour>
      <point x="13.0" y="521.5" type="line"/>
      <point x="710.25" y="521.5" type="line"/>
      <point x="710.25" y="604.0" type="line"/>
      <point x="13.0" y="604.0" type="line"/>
    </contour>
    <component base="H"/>
  </outline>
</glyph>
<glyph name="Eng" format="2">
  <advance width="760.25"/>
  <unicode hex="014A"/>
  <anchor x="387.5" y="0.0" name="bottom"/>
  <anchor x="668.5" y="0.0" name="ogonek"/>
  <anchor x="378.5" y="700.0" name="top"/>
  <outline>
    <contour>
      <point x="490.5" y="-232.0" type="curve" smooth="yes"/>
      <point x="610.25" y="-229.75"/>
      <point x="678.75" y="-160.75"/>
      <point x="678.75" y="-30.25" type="curve" smooth="yes"/>
      <point x="678.75" y="0.0" type="line"/>
      <point x="585.5" y="143.0" type="line"/>
      <point x="585.5" y="-30.25" type="line" smooth="yes"/>
      <point x="585.5" y="-99.5"/>
      <point x="547.5" y="-138.75"/>
      <point x="491.75" y="-138.75" type="curve" smooth="yes"/>
      <point x="458.25" y="-138.75"/>
      <point x="430.75" y="-128.0"/>
      <point x="410.25" y="-103.25" type="curve"/>
      <point x="345.75" y="-183.0" type="line"/>
      <point x="382.75" y="-219.25"/>
      <point x="432.75" y="-232.75"/>
    </contour>
    <component base="N"/>
  </outline>
</glyph>
<glyph name="verticallinemod" format="2">
  <advance width="236.75"/>
  <unicode hex="02C8"/>
  <outline>
    <contour>
      <point x="71.5" y="420.0" type="line"/>
      <point x="165.25" y="420.0" type="line"/>
      <point x="165.25" y="740.0" type="line"/>
      <point x="71.5" y="740.0" type="line"/>
      <point x="71.5" y="478.0" type="line"/>
    </contour>
  </outline>
</glyph>
<glyph name="hookabovecomb" format="2">
  <unicode hex="0309"/>
  <anchor x="0.0" y="493.75" name="_top"/>
  <anchor x="0.0" y="672.75" name="top"/>
  <outline>
    <contour>
      <point x="-30.0" y="543.25" type="curve"/>
      <point x="31.0" y="543.25" type="line"/>
      <point x="52.75" y="558.0"/>
      <point x="62.75" y="583.25"/>
      <point x="62.75" y="609.75" type="curve" smooth="yes"/>
      <point x="62.75" y="656.5"/>
      <point x="29.25" y="695.5"/>
      <point x="-35.5" y="695.5" type="curve" smooth="yes"/>
      <point x="-64.0" y="695.5"/>
      <point x="-92.5" y="688.25"/>
      <point x="-114.75" y="669.75" type="curve"/>
      <point x="-80.5" y="618.0" type="line"/>
      <point x="-68.5" y="627.0"/>
      <point x="-55.0" y="633.5"/>
      <point x="-34.75" y="633.5" type="curve" smooth="yes"/>
      <point x="-10.25" y="633.5"/>
      <point x="10.0" y="620.0"/>
      <point x="10.0" y="597.5" type="curve" smooth="yes"/>
      <point x="10.0" y="575.75"/>
      <point x="-3.5" y="557.0"/>
    </contour>
  </outline>
</glyph>
<glyph name="hungarumlautcomb" format="2">
  <unicode hex="030B"/>
  <anchor x="0.0" y="493.75" name="_top"/>
  <anchor x="0.25" y="675.0" name="top"/>
  <outline>
    <contour>
      <point x="45.0" y="549.25" type="line"/>
      <point x="90.0" y="549.25" type="line"/>
      <point x="172.25" y="708.25" type="line"/>
      <point x="76.5" y="708.25" type="line"/>
    </contour>
    <contour>
      <point x="-90.0" y="549.25" type="line"/>
      <point x="-45.0" y="549.25" type="line"/>
      <point x="37.25" y="708.25" type="line"/>
      <point x="-58.5" y="708.25" type="line"/>
    </contour>
  </outline>
</glyph>
<glyph name="pi" format="2">
  <advance width="600.0"/>
  <unicode hex="03C0"/>
  <outline>
    <contour>
      <point x="530.0" y="-7.0" type="curve" smooth="yes"/>
      <point x="553.0" y="-7.75"/>
      <point x="565.5" y="-5.25"/>
      <point x="582.25" y="1.0" type="curve"/>
      <point x="582.25" y="85.75" type="line"/>
      <point x="574.0" y="80.25"/>
      <point x="552.0" y="79.25"/>
      <point x="537.0" y="79.25" type="curve" smooth="yes"/>
      <point x="492.0" y="79.25"/>
      <point x="469.0" y="105.5"/>
      <point x="469.0" y="158.75" type="curve" smooth="yes"/>
      <point x="469.0" y="409.75" type="line"/>
      <point x="582.25" y="409.75" type="line"/>
      <point x="582.25" y="493.75" type="line"/>
      <point x="17.75" y="493.75" type="line"/>
      <point x="17.75" y="409.75" type="line"/>
      <point x="127.25" y="409.75" type="line"/>
      <point x="127.25" y="0.0" type="line"/>
      <point x="221.0" y="0.0" type="line"/>
      <point x="221.0" y="409.75" type="line"/>
      <point x="375.25" y="409.75" type="line"/>
      <point x="375.25" y="152.5" type="line" smooth="yes"/>
      <point x="375.25" y="42.5"/>
      <point x="435.5" y="-4.75"/>
    </contour>
  </outline>
</glyph>
<glyph name="guilsinglleft" format="2">
  <advance width="344.5"/>
  <unicode hex="2039"/>
  <outline>
    <contour>
      <point x="193.25" y="48.0" type="line"/>
      <point x="289.25" y="48.0" type="line"/>
      <point x="157.25" y="263.25" type="line"/>
      <point x="157.25" y="267.25" type="line"/>
      <point x="289.25" y="477.0" type="line"/>
      <point x="191.25" y="477.0" type="line"/>
      <point x="65.25" y="263.0" type="line"/>
    </contour>
  </outline>
</glyph>
<glyph name="interrobang" format="2">
  <advance width="519.75"/>
  <unicode hex="203D"/>
  <outline>
    <contour>
      <point x="214.5" y="160.5" type="line"/>
      <point x="282.25" y="160.5" type="line"/>
      <point x="289.75" y="334.75" type="line"/>
      <point x="264.0" y="279.75" type="line"/>
      <point x="319.75" y="328.5" type="line"/>
      <point x="287.75" y="368.0" type="line"/>
      <point x="291.5" y="379.0"/>
      <point x="293.5" y="386.0"/>
      <point x="293.5" y="398.0" type="curve" smooth="yes"/>
      <point x="299.0" y="567.5" type="line"/>
      <point x="198.25" y="567.5" type="line"/>
    </contour>
    <contour>
      <point x="253.0" y="301.0" type="line"/>
      <point x="393.0" y="301.0"/>
      <point x="478.25" y="387.0"/>
      <point x="478.25" y="506.0" type="curve" smooth="yes"/>
      <point x="478.25" y="624.0"/>
      <point x="393.0" y="713.0"/>
      <point x="258.0" y="713.0" type="curve" smooth="yes"/>
      <point x="127.0" y="713.0"/>
      <point x="31.75" y="632.0"/>
      <point x="31.75" y="500.0" type="curve"/>
      <point x="129.25" y="500.0" type="line"/>
      <point x="129.25" y="579.5"/>
      <point x="179.25" y="628.75"/>
      <point x="258.25" y="628.75" type="curve" smooth="yes"/>
      <point x="333.5" y="628.75"/>
      <point x="380.75" y="575.75"/>
      <point x="380.75" y="491.0" type="curve" smooth="yes"/>
      <point x="380.75" y="415.75"/>
      <point x="331.25" y="368.0"/>
      <point x="253.0" y="368.0" type="curve"/>
    </contour>
    <component base="period" xOffset="131.75"/>
  </outline>
</glyph>
<glyph name="naira" format="2">
  <advance width="730.25"/>
  <unicode hex="20A6"/>
  <anchor x="371.36762500000003" y="30.0" name="bottom"/>
  <anchor x="637.59405" y="30.0" name="ogonek"/>
  <anchor x="362.84080000000006" y="669.94" name="top"/>
  <outline>
    <contour>
      <point x="0.0" y="322.25" type="line"/>
      <point x="730.25" y="322.25" type="line"/>
      <point x="730.25" y="397.5" type="line"/>
      <point x="0.0" y="397.5" type="line"/>
    </contour>
    <component base="N" xScale="0.947425" yScale="0.9142" xOffset="4.25" yOffset="30.0"/>
  </outline>
</glyph>
<glyph name="ruble" format="2">
  <advance width="566.75"/>
  <unicode hex="20BD"/>
  <outline>
    <contour>
      <point x="81.5" y="30.0" type="line"/>
      <point x="178.0" y="30.0" type="line"/>
      <point x="178.0" y="261.25" type="line"/>
      <point x="311.0" y="261.25" type="line" smooth="yes"/>
      <point x="445.5" y="261.25"/>
      <point x="545.25" y="330.5"/>
      <point x="545.25" y="467.75" type="curve" smooth="yes"/>
      <point x="545.25" y="604.0"/>
      <point x="444.75" y="672.5"/>
      <point x="311.0" y="672.5" type="curve" smooth="yes"/>
      <point x="81.5" y="672.5" type="line"/>
    </contour>
    <contour>
      <point x="178.0" y="352.0" type="line"/>
      <point x="178.0" y="581.75" type="line"/>
      <point x="303.0" y="581.75" type="line" smooth="yes"/>
      <point x="389.5" y="581.75"/>
      <point x="446.0" y="550.5"/>
      <point x="446.0" y="467.5" type="curve" smooth="yes"/>
      <point x="446.0" y="382.75"/>
      <point x="389.5" y="352.0"/>
      <point x="303.0" y="352.0" type="curve" smooth="yes"/>
    </contour>
    <contour>
      <point x="20.0" y="261.25" type="line"/>
      <point x="183.0" y="261.25" type="line"/>
      <point x="183.0" y="336.5" type="line"/>
      <point x="20.0" y="336.5" type="line"/>
    </contour>
    <contour>
      <point x="20.0" y="135.25" type="line"/>
      <point x="438.0" y="135.25" type="line"/>
      <point x="437.0" y="210.5" type="line"/>
      <point x="20.0" y="210.5" type="line"/>
    </contour>
  </outline>
</glyph>
<glyph name="riyalSaudi" format="2">
  <advance width="600.0"/>
  <unicode hex="20C1"/>
  <outline>
    <contour>
      <point x="18.0" y="69.25" type="line"/>
      <point x="133.75" y="98.5" type="line" smooth="yes"/>
      <point x="200.25" y="115.75"/>
      <point x="265.75" y="191.75"/>
      <point x="265.75" y="262.0" type="curve" smooth="yes"/>
      <point x="265.75" y="764.5" type="line"/>
      <point x="190.75" y="727.0" type="line"/>
      <point x="188.5" y="204.0" type="line"/>
      <point x="34.75" y="166.75" type="line"/>
    </contour>
    <contour>
      <point x="340.5" y="29.5" type="line"/>
      <point x="565.5" y="78.0" type="line"/>
      <point x="583.0" y="174.0" type="line"/>
      <point x="360.25" y="126.5" type="line"/>
    </contour>
    <contour>
      <point x="18.0" y="252.25" type="line"/>
      <point x="564.0" y="374.25" type="line"/>
      <point x="583.0" y="472.5" type="line"/>
      <point x="34.75" y="350.5" type="line"/>
    </contour>
    <contour>
      <point x="338.0" y="179.5" type="line"/>
      <point x="564.0" y="225.0" type="line"/>
      <point x="583.0" y="323.25" type="line"/>
      <point x="362.0" y="274.0" type="line"/>
    </contour>
    <contour>
      <point x="338.0" y="179.5" type="line"/>
      <point x="413.0" y="198.75" type="line"/>
      <point x="413.0" y="713.0" type="line"/>
      <point x="338.0" y="676.75" type="line"/>
    </contour>
  </outline>
</glyph>
<glyph name="partialdiff" format="2">
  <advance width="622.25"/>
  <unicode hex="2202"/>
  <outline>
    <contour>
      <point x="292.5" y="-13.0" type="curve" smooth="yes"/>
      <point x="446.5" y="-13.0"/>
      <point x="555.0" y="89.0"/>
      <point x="555.0" y="281.5" type="curve" smooth="yes"/>
      <point x="555.0" y="340.75"/>
      <point x="538.25" y="401.75"/>
      <point x="509.75" y="460.5" type="curve" smooth="yes"/>
      <point x="452.75" y="579.75"/>
      <point x="357.75" y="666.25"/>
      <point x="233.5" y="756.0" type="curve"/>
      <point x="165.0" y="679.5" type="line"/>
      <point x="297.0" y="591.0"/>
      <point x="393.5" y="488.25"/>
      <point x="437.75" y="392.75" type="curve"/>
      <point x="437.75" y="383.0" type="line"/>
      <point x="452.0" y="344.0"/>
      <point x="460.5" y="302.5"/>
      <point x="460.5" y="260.25" type="curve" smooth="yes"/>
      <point x="460.5" y="156.5"/>
      <point x="400.5" y="73.5"/>
      <point x="291.75" y="73.5" type="curve" smooth="yes"/>
      <point x="190.0" y="73.5"/>
      <point x="129.75" y="152.0"/>
      <point x="129.75" y="241.75" type="curve" smooth="yes"/>
      <point x="129.75" y="333.5"/>
      <point x="199.75" y="402.5"/>
      <point x="289.5" y="402.5" type="curve" smooth="yes"/>
      <point x="374.0" y="402.5"/>
      <point x="418.25" y="373.0"/>
      <point x="482.75" y="296.25" type="curve"/>
      <point x="475.5" y="379.75" type="line"/>
      <point x="427.0" y="443.0"/>
      <point x="372.75" y="487.0"/>
      <point x="273.75" y="487.0" type="curve" smooth="yes"/>
      <point x="155.25" y="487.0"/>
      <point x="37.0" y="393.0"/>
      <point x="37.0" y="241.0" type="curve" smooth="yes"/>
      <point x="37.0" y="101.0"/>
      <point x="137.5" y="-13.0"/>
    </contour>
  </outline>
</glyph>
<glyph name="notequal" format="2">
  <advance width="596.0"/>
  <unicode hex="2260"/>
  <outline>
    <contour>
      <point x="184.5" y="216.0" type="line"/>
      <point x="278.5" y="216.0" type="line"/>
      <point x="426.5" y="443.0" type="line"/>
      <point x="332.5" y="443.0" type="line"/>
    </contour>
    <contour>
      <point x="95.5" y="70.0" type="line"/>
      <point x="193.5" y="70.0" type="line"/>
      <point x="283.5" y="216.0" type="line"/>
      <point x="186.5" y="216.0" type="line"/>
    </contour>
    <contour>
      <point x="327.5" y="443.0" type="line"/>
      <point x="424.5" y="443.0" type="line"/>
      <point x="497.5" y="561.0" type="line"/>
      <point x="400.5" y="561.0" type="line"/>
    </contour>
    <component base="equal"/>
  </outline>
</glyph>
<glyph name="rightanglebracket-math" format="2">
  <advance width="311.25"/>
  <unicode hex="27E9"/>
  <outline>
    <contour>
      <point x="45.25" y="-220.0" type="line"/>
      <point x="131.25" y="-220.0" type="line"/>
      <point x="301.25" y="240.0" type="line"/>
      <point x="131.25" y="700.0" type="line"/>
      <point x="46.25" y="700.0" type="line"/>
      <point x="215.25" y="238.0" type="line"/>
      <point x="215.25" y="233.0" type="line"/>
    </contour>
  </outline>
</glyph>
<glyph name="five.numr" format="2">
  <advance width="333.75"/>
  <outline>
    <contour>
      <point x="155.0" y="308.0" type="curve" smooth="yes"/>
      <point x="231.25" y="308.0"/>
      <point x="291.75" y="361.5"/>
      <point x="291.75" y="436.25" type="curve" smooth="yes"/>
      <point x="291.75" y="500.75"/>
      <point x="240.25" y="559.25"/>
      <point x="169.75" y="559.25" type="curve" smooth="yes"/>
      <point x="155.75" y="559.25"/>
      <point x="142.0" y="556.75"/>
      <point x="130.75" y="553.0" type="curve"/>
      <point x="129.0" y="554.0" type="line"/>
      <point x="153.25" y="676.5" type="line"/>
      <point x="114.0" y="645.5" type="line"/>
      <point x="267.0" y="645.5" type="line"/>
      <point x="267.0" y="700.0" type="line"/>
      <point x="98.0" y="700.0" type="line"/>
      <point x="51.25" y="472.0" type="line"/>
      <point x="85.25" y="493.25"/>
      <point x="106.5" y="503.5"/>
      <point x="152.0" y="503.5" type="curve" smooth="yes"/>
      <point x="197.75" y="503.5"/>
      <point x="231.0" y="476.5"/>
      <point x="231.0" y="434.75" type="curve" smooth="yes"/>
      <point x="231.0" y="389.75"/>
      <point x="196.25" y="363.0"/>
      <point x="155.75" y="363.0" type="curve" smooth="yes"/>
      <point x="119.25" y="363.0"/>
      <point x="94.75" y="377.0"/>
      <point x="70.0" y="403.25" type="curve"/>
      <point x="32.5" y="361.0" type="line"/>
      <point x="62.75" y="324.5"/>
      <point x="106.5" y="308.0"/>
    </contour>
  </outline>
</glyph>
<glyph name="rupee.tf" format="2">
  <advance width="596.0"/>
  <outline>
    <contour>
      <point x="430.0" y="17.0" type="curve" smooth="yes"/>
      <point x="501.25" y="17.0"/>
      <point x="568.0" y="68.5"/>
      <point x="568.0" y="151.75" type="curve" smooth="yes"/>
      <point x="568.0" y="290.25"/>
      <point x="417.75" y="275.25"/>
      <point x="417.75" y="359.5" type="curve" smooth="yes"/>
      <point x="417.75" y="386.5"/>
      <point x="435.75" y="404.25"/>
      <point x="460.75" y="404.25" type="curve" smooth="yes"/>
      <point x="481.0" y="404.25"/>
      <point x="496.25" y="387.25"/>
      <point x="504.5" y="359.0" type="curve"/>
      <point x="575.0" y="397.75" type="line"/>
      <point x="548.25" y="460.75"/>
      <point x="507.25" y="479.25"/>
      <point x="458.25" y="479.25" type="curve" smooth="yes"/>
      <point x="388.0" y="479.25"/>
      <point x="338.0" y="431.5"/>
      <point x="338.0" y="352.75" type="curve" smooth="yes"/>
      <point x="338.0" y="226.25"/>
      <point x="488.25" y="240.0"/>
      <point x="488.25" y="146.0" type="curve" smooth="yes"/>
      <point x="488.25" y="111.75"/>
      <point x="462.5" y="92.75"/>
      <point x="429.75" y="92.75" type="curve" smooth="yes"/>
      <point x="396.75" y="92.75"/>
      <point x="370.75" y="114.5"/>
      <point x="337.5" y="153.0" type="curve" smooth="yes"/>
      <point x="185.75" y="331.75" type="line"/>
      <point x="141.5" y="293.0" type="line"/>
      <point x="234.25" y="293.75"/>
      <point x="323.25" y="347.5"/>
      <point x="323.25" y="479.0" type="curve" smooth="yes"/>
      <point x="323.25" y="615.0"/>
      <point x="234.0" y="670.0"/>
      <point x="136.0" y="670.0" type="curve" smooth="yes"/>
      <point x="21.0" y="670.0" type="line"/>
      <point x="21.0" y="30.0" type="line"/>
      <point x="103.75" y="30.0" type="line"/>
      <point x="103.75" y="290.5" type="line"/>
      <point x="119.75" y="290.5" type="line"/>
      <point x="130.25" y="267.25"/>
      <point x="143.75" y="246.5"/>
      <point x="161.5" y="227.75" type="curve" smooth="yes"/>
      <point x="263.0" y="116.0" type="line" smooth="yes"/>
      <point x="327.75" y="44.75"/>
      <point x="363.5" y="17.0"/>
    </contour>
    <contour>
      <point x="103.75" y="369.0" type="line"/>
      <point x="103.75" y="590.25" type="line"/>
      <point x="135.5" y="590.25" type="line" smooth="yes"/>
      <point x="196.5" y="590.25"/>
      <point x="237.25" y="567.0"/>
      <point x="237.25" y="478.5" type="curve" smooth="yes"/>
      <point x="237.25" y="393.25"/>
      <point x="196.75" y="369.0"/>
      <point x="136.0" y="369.0" type="curve" smooth="yes"/>
    </contour>
  </outline>
</glyph>
<glyph name="zero.ss10" format="2">
  <advance width="624.0"/>
  <outline>
    <contour>
      <point x="312.0" y="-13.0" type="curve" smooth="yes"/>
      <point x="459.25" y="-13.0"/>
      <point x="566.5" y="110.0"/>
      <point x="566.5" y="348.0" type="curve" smooth="yes"/>
      <point x="566.5" y="582.0"/>
      <point x="467.25" y="711.0"/>
      <point x="312.0" y="711.0" type="curve" smooth="yes"/>
      <point x="157.75" y="711.0"/>
      <point x="57.5" y="585.0"/>
      <point x="57.5" y="348.0" type="curve" smooth="yes"/>
      <point x="57.5" y="109.0"/>
      <point x="164.75" y="-13.0"/>
    </contour>
    <contour>
      <point x="312.0" y="77.25" type="curve" smooth="yes"/>
      <point x="232.75" y="77.25"/>
      <point x="159.75" y="148.5"/>
      <point x="159.75" y="348.0" type="curve" smooth="yes"/>
      <point x="159.75" y="560.0"/>
      <point x="232.75" y="620.75"/>
      <point x="312.0" y="620.75" type="curve" smooth="yes"/>
      <point x="391.25" y="620.75"/>
      <point x="464.25" y="560.0"/>
      <point x="464.25" y="348.0" type="curve" smooth="yes"/>
      <point x="464.25" y="148.5"/>
      <point x="391.25" y="77.25"/>
    </contour>
  </outline>
</glyph>
